<?xml version="1.0" standalone="no"?><svg width="1890" height="1575" xmlns="http://www.w3.org/2000/svg" xmlns:xlink="http://www.w3.org/1999/xlink"><style>body { font-family: sans-serif; padding: 0px; margin: 0px; }line.bg { stroke: rgba(3, 148, 172, 0.7); stroke-width: 1; }circle.bg { fill: rgba(100, 220, 240, 0.7); }line.bg-sub { stroke: rgba(140, 240, 240, 0.5); stroke-width: 1; }rect, path, circle { fill: none; stroke-width: 2; stroke-linejoin: round; }pattern line { vector-effect: non-scaling-stroke; }.zoomed-out pattern line { vector-effect: none; }text { stroke-width: 0; font-family: sans-serif; }text tspan { vector-effect: non-scaling-stroke; }.ui-dark { background: rgb(51, 51, 51); }.ui-dark line.bg { stroke: rgba(172, 232, 242, 0.57); stroke-width: 1; }.ui-dark circle.bg { fill: rgba(100, 220, 240, 0.3); }.ui-dark line.bg-sub { stroke: rgba(140, 240, 240, 0.1); stroke-width: 1; }rect.marquee { fill: rgba(234, 255, 231, 0.3); stroke: rgb(98, 137, 95); stroke-width: 1; stroke-dasharray: 4; vector-effect: non-scaling-stroke; }rect.highlight { fill: blue; opacity: 0.5; }</style><g transform="translate(-210, -15)"><defs><pattern id="pattern_bg" viewBox="0 0 60 60" width="0.03571428571428571" height="0.064034151547492" patternTransform="scale(0.5 0.5) translate(548.3024276107113 162.46974667155234)"><line class="bg" x1="0" y1="0" x2="60" y2="0"></line><line class="bg" x1="0" y1="0" y2="60" x2="0"></line><line class="bg-sub" x1="0" y1="15" x2="60" y2="15"></line><line class="bg-sub" y1="0" x1="15" y2="60" x2="15"></line><line class="bg-sub" x1="0" y1="30" x2="60" y2="30"></line><line class="bg-sub" y1="0" x1="30" y2="60" x2="30"></line><line class="bg-sub" x1="0" y1="45" x2="60" y2="45"></line><line class="bg-sub" y1="0" x1="45" y2="60" x2="45"></line></pattern></defs><g class="bg"><rect x="-548.3024276107113" y="-162.46974667155234" width="3360" height="1874" style="fill: url(&quot;#pattern_bg&quot;);"></rect></g>null<path d="M 795 240" class="u" stroke="rgb(41, 173, 255)" style="fill: rgba(0, 0, 0, 0); stroke-width: 2;"></path><path d="M 480 540 L 480 1140 L 1560 1140 L 1560 540 Z" class="u" stroke="rgb(41, 173, 255)" style="fill: rgba(0, 0, 0, 0); stroke-width: 2;"></path><path d="M 720 540 L 720 1140" class="u" stroke="rgb(41, 173, 255)" style="fill: rgba(0, 0, 0, 0); stroke-width: 2;"></path><path d="M 1320 540 L 1320 1140" class="u" stroke="rgb(41, 173, 255)" style="fill: rgba(0, 0, 0, 0); stroke-width: 2;"></path><path d="M 1200 360 L 1200 480 L 1320 480 L 1320 360 Z" class="u" stroke="rgb(41, 173, 255)" style="fill: rgba(0, 0, 0, 0); stroke-width: 2;"></path><path d="M 1260 840 L 1260 600 L 780 600 L 780 1080 L 1260 1080 L 1260 825" class="u" stroke="rgb(41, 173, 255)" style="fill: rgba(0, 0, 0, 0); stroke-width: 2;"></path><rect x="1245" y="360" class="u" style="stroke: rgb(41, 173, 255); fill: rgb(0, 228, 54); stroke-width: 2;" width="30" height="15"></rect><rect x="1275" y="375" class="u" style="stroke: rgb(41, 173, 255); fill: rgb(0, 228, 54); stroke-width: 2;" width="15" height="15"></rect><rect x="1230" y="375" class="u" style="stroke: rgb(41, 173, 255); fill: rgb(0, 228, 54); stroke-width: 2;" width="15" height="15"></rect><rect x="1215" y="390" class="u" style="stroke: rgb(41, 173, 255); fill: rgb(0, 228, 54); stroke-width: 2;" width="15" height="75"></rect><rect x="1200" y="465" class="u" style="stroke: rgb(41, 173, 255); fill: rgb(0, 228, 54); stroke-width: 2;" width="45" height="15"></rect><rect x="1275" y="465" class="u" style="stroke: rgb(41, 173, 255); fill: rgb(0, 228, 54); stroke-width: 2;" width="45" height="15"></rect><rect x="1290" y="390" class="u" style="stroke: rgb(41, 173, 255); fill: rgb(0, 228, 54); stroke-width: 2;" width="15" height="75"></rect><rect x="1230" y="420" class="u" style="stroke: rgb(41, 173, 255); fill: rgb(0, 228, 54); stroke-width: 2;" width="60" height="15"></rect><rect x="960" y="600" class="u" style="stroke: rgb(41, 173, 255); fill: rgb(0, 228, 54); stroke-width: 2;" width="120" height="60"></rect><rect x="1080" y="660" class="u" style="stroke: rgb(41, 173, 255); fill: rgb(0, 228, 54); stroke-width: 2;" width="60" height="60"></rect><rect x="1140" y="720" class="u" style="stroke: rgb(41, 173, 255); fill: rgb(0, 228, 54); stroke-width: 2;" width="60" height="300"></rect><rect x="840" y="720" class="u" style="stroke: rgb(41, 173, 255); fill: rgb(0, 228, 54); stroke-width: 2;" width="60" height="300"></rect><rect x="780" y="1020" class="u" style="stroke: rgb(41, 173, 255); fill: rgb(0, 228, 54); stroke-width: 2;" width="180" height="60"></rect><rect x="1080" y="1020" class="u" style="stroke: rgb(41, 173, 255); fill: rgb(0, 228, 54); stroke-width: 2;" width="180" height="60"></rect><rect x="900" y="660" class="u" style="stroke: rgb(41, 173, 255); fill: rgb(0, 228, 54); stroke-width: 2;" width="60" height="60"></rect><rect x="900" y="840" class="u" style="stroke: rgb(41, 173, 255); fill: rgb(0, 228, 54); stroke-width: 2;" width="240" height="60"></rect></g></svg>